# xmcd CD database file
#
# Track frame offsets:
#	150
#	37874
#	76948
#	123448
#	163798
#	197247
#	229646
#	245170
#	287994
#
# Disc length: 4271 seconds
#
# Revision: 0
# Processed by: cddbd v1.5.1PL0 Copyright (c) Steve Scherf et al.
# Submitted via: CDex 1.50beta8
#
DISCID=7810ad09
DTITLE=Charles McPherson Quartet featuring Steve Kuhn - But Beautiful
DYEAR=2003
DGENRE=Jazz
TTITLE0=Be My Love
TTITLE1=I Should Care
TTITLE2=We'll Be Together Again
TTITLE3=My Ideal
TTITLE4=I Didn't Know What Time It Was
TTITLE5=I'll Never Stop Loving You
TTITLE6=Love Letters
TTITLE7=But Beautiful
TTITLE8=Gone With The Wind
EXTD=YEAR: 2003
EXTT0=
EXTT1=
EXTT2=
EXTT3=
EXTT4=
EXTT5=
EXTT6=
EXTT7=
EXTT8=
PLAYORDER=
